<?xml version="1.0" encoding="UTF-8" standalone="no"?>
<svg
        xmlns:dc="http://purl.org/dc/elements/1.1/"
        xmlns:cc="http://creativecommons.org/ns#"
        xmlns:rdf="http://www.w3.org/1999/02/22-rdf-syntax-ns#"
        xmlns="http://www.w3.org/2000/svg"
        xmlns:sodipodi="http://sodipodi.sourceforge.net/DTD/sodipodi-0.dtd"
        xmlns:inkscape="http://www.inkscape.org/namespaces/inkscape"
        version="1.1"
        width="440"
        height="440"
        id="svg4424"
        inkscape:version="0.91 r13725"
        sodipodi:docname="template.svg">
    <metadata
            id="metadata4491">
        <rdf:RDF>
            <cc:Work
                    rdf:about="">
                <dc:format>image/svg+xml</dc:format>
                <dc:type
                        rdf:resource="http://purl.org/dc/dcmitype/StillImage" />
                <dc:title></dc:title>
            </cc:Work>
        </rdf:RDF>
    </metadata>
    <sodipodi:namedview
            pagecolor="#ffffff"
            bordercolor="#666666"
            borderopacity="1"
            objecttolerance="10"
            gridtolerance="10"
            guidetolerance="10"
            inkscape:pageopacity="0"
            inkscape:pageshadow="2"
            inkscape:window-width="1999"
            inkscape:window-height="1128"
            id="namedview4489"
            showgrid="false"
            fit-margin-top="0"
            fit-margin-left="0"
            fit-margin-right="0"
            fit-margin-bottom="0"
            inkscape:zoom="1"
            inkscape:cx="5.00001"
            inkscape:cy="-23.124117"
            inkscape:window-x="49"
            inkscape:window-y="24"
            inkscape:window-maximized="1"
            inkscape:current-layer="svg4424" />
    <defs
            id="defs4426">
        <linearGradient
                x1="15.85868"
                y1="14.22988"
                x2="53.35453"
                y2="54.983299"
                gradientUnits="userSpaceOnUse"
                id="color-1">
            <stop
                    offset="0"
                    stop-color="#000000"
                    stop-opacity="0.3"
                    id="stop4429" />
            <stop
                    offset="1"
                    stop-color="#000000"
                    stop-opacity="0"
                    id="stop4431" />
        </linearGradient>
        <filter
                id="dropshadow-base">
            <feColorMatrix
                    type="matrix"
                    values="0 0 0 0 0  0 0 0 0 0  0 0 0 0 0  0 0 0 .8 0"
                    id="feColorMatrix4434" />
            <feOffset
                    dx="0"
                    dy="1"
                    id="feOffset4436" />
            <feGaussianBlur
                    stdDeviation="1"
                    id="feGaussianBlur4438"
                    result="result1" />
            <feComposite
                    in="SourceGraphic"
                    id="feComposite4440"
                    in2="result1" />
        </filter>
        <filter
                id="dropshadow-banner"
                x="-0.1"
                y="-0.1"
                width="1.2"
                height="1.3">
            <feColorMatrix
                    type="matrix"
                    values="0 0 0 0 0  0 0 0 0 0  0 0 0 0 0  0 0 0 .4 0"
                    id="feColorMatrix4443" />
            <feOffset
                    dx="0"
                    dy="1"
                    id="feOffset4445" />
            <feGaussianBlur
                    stdDeviation="0.5"
                    id="feGaussianBlur4447"
                    result="result1" />
            <feComposite
                    in="SourceGraphic"
                    id="feComposite4449"
                    in2="result1" />
        </filter>
    </defs>
    <g
            stroke-width="none"
            stroke-miterlimit="10"
            font-weight="none"
            font-size="none"
            text-anchor="none"
            style="font-family:none;mix-blend-mode:normal;fill:none;fill-rule:nonzero;stroke:none;stroke-linecap:butt;stroke-linejoin:miter;stroke-miterlimit:10;stroke-dasharray:none;stroke-dashoffset:0"
            id="g4451"
            transform="matrix(10,0,0,10,-20,-20)">
        <path
                d="M 7,43 C 5.89543,43 5,42.10457 5,41 L 5,7 C 5,5.89543 5.89543,5 7,5 l 34,0 c 1.10457,0 2,0.89543 2,2 l 0,34 c 0,1.10457 -0.89543,2 -2,2 z"
                id="base 1 9 1"
                inkscape:connector-curvature="0"
                style="fill:#3f51b5;stroke-width:1" />
        <path
                d="m 19.11518,20.74397 0.81414,0 -0.81414,-0.81414 c 0,-1.61605 0.78971,-3.04893 1.9987,-3.9404 l -1.06651,-1.06651 c -0.15875,-0.15875 -0.15875,-0.41521 0,-0.57396 0.15875,-0.15875 0.41521,-0.15875 0.57396,0 l 1.20899,1.20899 c 0.65538,-0.32565 1.3881,-0.5129 2.16967,-0.5129 0.7775,0 1.50615,0.18725 2.15746,0.50884 l 1.20492,-1.20084 c 0.15875,-0.15875 0.41521,-0.15875 0.57396,0 L 43,29.41672 43,41.00001 c 0,1.10457 -0.89543,2 -2,2 l -10.31224,0 -9.5871,-9.5871 c 0,0 0,0 0,0 -9.7e-4,-9.7e-4 -0.0019,-0.0019 -0.0029,-0.0029 l -4.88189,-4.88189 c 0,0 0,0 0,0 -0.22083,-0.22083 -0.3572,-0.52613 -0.3572,-0.864 l 0,-5.69893 c 0,-0.67573 0.54547,-1.2212 1.2212,-1.2212 0.33787,0 0.64316,0.13637 0.864,0.3572 l 1.17132,1.17132 z"
                id="path4454"
                inkscape:connector-curvature="0"
                style="fill:url(#color-1);stroke-width:1" />
        <path
                d="m 19.1152,28.88531 c 0,0.44777 0.36636,0.81413 0.81413,0.81413 l 0.81413,0 0,2.84947 c 0,0.67573 0.54547,1.2212 1.2212,1.2212 0.67573,0 1.2212,-0.54547 1.2212,-1.2212 l 0,-2.84947 1.62827,0 0,2.84947 c 0,0.67573 0.54547,1.2212 1.2212,1.2212 0.67573,0 1.2212,-0.54547 1.2212,-1.2212 l 0,-2.84947 0.81413,0 c 0.44777,0 0.81413,-0.36636 0.81413,-0.81413 l 0,-8.14133 -9.7696,0 z m -2.03533,-8.14133 c -0.67573,0 -1.2212,0.54547 -1.2212,1.2212 l 0,5.69893 c 0,0.67573 0.54547,1.2212 1.2212,1.2212 0.67573,0 1.2212,-0.54547 1.2212,-1.2212 l 0,-5.69893 c 0,-0.67573 -0.54547,-1.2212 -1.2212,-1.2212 z m 13.84026,0 c -0.67573,0 -1.2212,0.54547 -1.2212,1.2212 l 0,5.69893 c 0,0.67573 0.54547,1.2212 1.2212,1.2212 0.67573,0 1.2212,-0.54547 1.2212,-1.2212 l 0,-5.69893 c 0,-0.67573 -0.54547,-1.2212 -1.2212,-1.2212 z M 26.87389,15.98944 27.93633,14.927 c 0.15876,-0.15876 0.15876,-0.41521 0,-0.57396 -0.15876,-0.15876 -0.41521,-0.15876 -0.57396,0 l -1.20492,1.20085 C 25.50614,15.23231 24.77749,15.04506 24,15.04506 c -0.78157,0 -1.51429,0.18725 -2.16967,0.5129 l -1.20899,-1.20899 c -0.15876,-0.15876 -0.41521,-0.15876 -0.57396,0 -0.15876,0.15876 -0.15876,0.41521 0,0.57396 l 1.06651,1.06651 c -1.20899,0.89148 -1.9987,2.32435 -1.9987,3.94041 l 9.7696,0 c 0,-1.62013 -0.79378,-3.053 -2.01091,-3.94041 z m -4.50216,2.31214 -0.81413,0 0,-0.81413 0.81413,0 z m 4.07067,0 -0.81413,0 0,-0.81413 0.81413,0 z"
                id="path4456"
                inkscape:connector-curvature="0"
                style="fill:none;stroke-width:0" />
        <path
                d="m 19.1152,20.74398 9.7696,0 0,8.14133 c 0,0.44777 -0.36636,0.81413 -0.81413,0.81413 l -0.81413,0 0,2.84947 c 0,0.67573 -0.54547,1.2212 -1.2212,1.2212 -0.67573,0 -1.2212,-0.54547 -1.2212,-1.2212 l 0,-2.84947 -1.62827,0 0,2.84947 c 0,0.67573 -0.54547,1.2212 -1.2212,1.2212 -0.67573,0 -1.2212,-0.54547 -1.2212,-1.2212 l 0,-2.84947 -0.81413,0 c -0.44777,0 -0.81413,-0.36636 -0.81413,-0.81413 z m -0.81413,1.2212 0,5.69893 c 0,0.67573 -0.54547,1.2212 -1.2212,1.2212 -0.67573,0 -1.2212,-0.54547 -1.2212,-1.2212 l 0,-5.69893 c 0,-0.67573 0.54547,-1.2212 1.2212,-1.2212 0.67573,0 1.2212,0.54547 1.2212,1.2212 z m 13.84026,0 0,5.69893 c 0,0.67573 -0.54547,1.2212 -1.2212,1.2212 -0.67573,0 -1.2212,-0.54547 -1.2212,-1.2212 l 0,-5.69893 c 0,-0.67573 0.54547,-1.2212 1.2212,-1.2212 0.67573,0 1.2212,0.54547 1.2212,1.2212 z m -3.25653,-2.03534 -9.7696,0 c 0,-1.61605 0.78971,-3.04893 1.9987,-3.94041 l -1.06651,-1.06651 c -0.15876,-0.15876 -0.15876,-0.41521 0,-0.57396 0.15876,-0.15876 0.41521,-0.15876 0.57396,0 l 1.20899,1.20899 c 0.65538,-0.32565 1.3881,-0.5129 2.16967,-0.5129 0.7775,0 1.50615,0.18725 2.15745,0.50883 l 1.20492,-1.20085 c 0.15876,-0.15876 0.41521,-0.15876 0.57396,0 0.15876,0.15876 0.15876,0.41521 0,0.57396 l -1.06244,1.06244 c 1.21713,0.88741 2.01091,2.32028 2.01091,3.94041 z m -6.51307,-2.4424 -0.81413,0 0,0.81413 0.81413,0 z m 4.07067,0 -0.81413,0 0,0.81413 0.81413,0 z"
                id="path4458"
                inkscape:connector-curvature="0"
                style="fill:#ffffff;stroke-width:0" />
        <path
                d="M 2,24 C 2,11.84974 11.84974,2 24,2 36.15026,2 46,11.84974 46,24 46,36.15026 36.15026,46 24,46 11.84974,46 2,36.15026 2,24 Z"
                id="base 1 5 1"
                inkscape:connector-curvature="0"
                style="fill:none;stroke-width:1" />
        <path
                d="M 2,24 C 2,11.84974 11.84974,2 24,2 36.15026,2 46,11.84974 46,24 46,36.15026 36.15026,46 24,46 11.84974,46 2,36.15026 2,24 Z"
                id="base 1 1 1"
                inkscape:connector-curvature="0"
                style="fill:none;stroke-width:1" />
        <g
                font-weight="normal"
                font-size="14"
                id="g4462"
                style="font-weight:normal;font-size:14px;font-family:Roboto, sans-serif;text-anchor:start;fill:#000000;stroke-width:1" />
        <rect
                x="2"
                y="2"
                width="44"
                height="22"
                id="rect4464"
                style="fill:none;stroke-width:1" />
        <path
                d="M 2,24 2,2 46,2 46,24 Z"
                id="path4466"
                inkscape:connector-curvature="0"
                style="fill:none;stroke-width:1" />
        <path
                d="M 2,24 2,2 46,2 46,24 Z"
                id="path4468"
                inkscape:connector-curvature="0"
                style="fill:none;stroke-width:1" />
        <path
                d="M 2,24 2,2 46,2 46,24 Z"
                id="path4470"
                inkscape:connector-curvature="0"
                style="fill:none;stroke-width:1" />
        <path
                d="M 2,24 2,2 46,2 46,24 Z"
                id="path4472"
                inkscape:connector-curvature="0"
                style="fill:none;stroke-width:1" />
        <g
                font-weight="normal"
                font-size="14"
                id="g4474"
                style="font-weight:normal;font-size:14px;font-family:Roboto, sans-serif;text-anchor:start;fill:#000000;stroke-width:1" />
        <path
                d="m 13,36 0,-12 30,0 0,12 z"
                id="banner 1"
                inkscape:connector-curvature="0"
                style="fill:#404041;stroke-width:1;filter:url(#dropshadow-banner)" />
        <text
                x="28"
                y="33"
                font-weight="bold"
                font-size="8"
                id="text4477"
                style="font-weight:bold;font-size:8px;font-family:sans-serif;text-anchor:middle;fill:#ffffff;stroke-width:1">
            DEV
        </text>
        <rect
                x="2"
                y="2"
                width="44"
                height="22"
                id="rect4479"
                style="fill:none;stroke-width:1" />
        <path
                d="M 2,24 2,2 46,2 46,24 Z"
                id="path4481"
                inkscape:connector-curvature="0"
                style="fill:none;stroke-width:1" />
        <path
                d="M 2,24 2,2 46,2 46,24 Z"
                id="path4483"
                inkscape:connector-curvature="0"
                style="fill:none;stroke-width:1" />
        <path
                d="M 2,24 2,2 46,2 46,24 Z"
                id="path4485"
                inkscape:connector-curvature="0"
                style="fill:none;stroke-width:1" />
        <path
                d="M 2,24 2,2 46,2 46,24 Z"
                id="path4487"
                inkscape:connector-curvature="0"
                style="fill:none;stroke-width:1" />
    </g>
</svg>
